<?xml version="1.0" encoding="UTF-8" standalone="no"?>
<!DOCTYPE svg PUBLIC "-//W3C//DTD SVG 20010904//EN"
              "http://www.w3.org/TR/2001/REC-SVG-20010904/DTD/svg10.dtd">

<svg xmlns="http://www.w3.org/2000/svg"
     width="1.70667in" height="0.853333in"
     viewBox="0 0 512 256">
  <path id="Path"
        fill="white" stroke="none" stroke-width="0"
        d="M 189.23,132.38
           C 189.23,132.38 185.94,133.11 185.94,133.11
             184.61,133.40 183.24,133.68 181.83,133.95
             180.41,134.23 179.05,134.46 177.77,134.66
             176.47,134.84 175.39,134.94 174.52,134.94
             173.19,134.94 172.00,134.77 170.95,134.42
             169.90,134.08 168.83,133.54 167.73,132.81
             166.64,132.07 165.42,131.12 164.08,129.94
             162.73,128.76 161.11,127.37 159.20,125.75
             158.08,127.27 156.91,128.65 155.69,129.88
             154.47,131.11 153.34,132.16 152.31,133.05
             151.29,133.93 150.45,134.64 149.78,135.16
             149.12,135.67 148.80,136.00 148.80,136.14
             148.80,136.64 149.19,137.42 149.97,138.47
             150.75,139.52 151.80,140.79 153.11,142.27
             154.43,143.75 155.97,145.36 157.73,147.11
             159.49,148.85 161.36,150.65 163.34,152.52
             165.32,154.38 167.35,156.25 169.42,158.12
             171.49,159.99 173.53,161.78 175.53,163.50
             175.97,164.04 176.18,164.57 176.16,165.09
             176.13,165.61 175.94,166.09 175.56,166.53
             175.20,166.97 174.69,167.32 174.03,167.59
             173.38,167.87 172.63,168.00 171.80,168.00
             170.96,168.00 170.23,167.68 169.61,167.05
             163.65,161.21 158.51,156.03 154.19,151.50
             149.86,146.96 146.31,142.87 143.53,139.22
             140.75,135.56 138.69,132.26 137.34,129.30
             136.00,126.33 135.33,123.47 135.33,120.72
             135.33,118.96 135.72,117.62 136.50,116.69
             137.28,115.75 138.38,115.28 139.80,115.28
             140.67,115.28 141.44,115.37 142.09,115.53
             142.76,115.70 143.38,115.88 143.97,116.08
             144.55,116.27 145.14,116.45 145.75,116.61
             146.36,116.78 147.06,116.86 147.84,116.86
             148.82,116.86 149.63,116.70 150.27,116.36
             150.90,116.02 151.40,115.44 151.77,114.62
             152.13,113.81 152.38,112.75 152.53,111.42
             152.68,110.10 152.75,108.43 152.75,106.42
             152.75,105.03 152.71,103.57 152.64,102.06
             152.57,100.55 152.48,98.81 152.39,96.84
             152.39,96.84 126.53,96.84 126.53,96.84
             126.53,96.84 126.53,87.00 126.53,87.00
             126.53,87.00 209.67,87.00 209.67,87.00
             209.67,87.00 209.67,96.84 209.67,96.84
             209.67,96.84 200.80,96.84 200.80,96.84
             200.80,96.84 200.80,150.92 200.80,150.92
             202.32,151.76 203.73,152.76 205.05,153.94
             206.37,155.12 207.52,156.39 208.48,157.77
             209.46,159.13 210.23,160.57 210.80,162.09
             211.36,163.62 211.64,165.11 211.64,166.58
             211.64,169.38 210.89,171.97 209.41,174.34
             207.91,176.72 206.01,178.77 203.69,180.52
             201.38,182.25 198.84,183.60 196.08,184.56
             193.32,185.52 190.69,186.00 188.20,186.00
             184.69,186.00 181.36,185.54 178.20,184.61
             175.05,183.68 171.83,182.25 168.53,180.31
             165.24,178.38 161.70,175.95 157.92,173.02
             154.14,170.08 149.88,166.61 145.14,162.59
             145.19,162.45 145.36,162.20 145.66,161.83
             145.95,161.46 146.27,161.09 146.64,160.70
             147.00,160.31 147.37,159.95 147.73,159.64
             148.10,159.32 148.41,159.11 148.66,159.00
             152.41,162.29 155.86,165.04 158.98,167.25
             162.11,169.46 165.07,171.22 167.88,172.53
             170.69,173.85 173.42,174.79 176.08,175.33
             178.74,175.88 181.49,176.16 184.33,176.16
             186.42,176.16 188.63,175.75 190.95,174.95
             193.27,174.16 195.40,173.09 197.33,171.75
             199.25,170.41 200.85,168.91 202.12,167.22
             203.39,165.53 204.03,163.79 204.03,162.00
             204.03,160.71 203.68,159.70 202.97,158.98
             202.26,158.27 201.32,157.86 200.14,157.75
             199.02,157.75 198.02,157.93 197.14,158.28
             196.27,158.62 195.38,159.07 194.47,159.61
             193.56,160.15 192.52,160.77 191.34,161.47
             190.18,162.16 188.74,162.85 187.03,163.55
             186.94,163.60 186.63,163.46 186.11,163.14
             185.60,162.82 185.00,162.41 184.31,161.92
             183.63,161.43 182.91,160.88 182.16,160.27
             181.41,159.65 180.70,159.06 180.03,158.50
             179.38,157.93 178.84,157.41 178.42,156.94
             178.02,156.47 177.81,156.14 177.81,155.94
             177.81,155.75 178.14,155.34 178.80,154.70
             179.45,154.06 180.32,153.37 181.39,152.62
             182.46,151.89 183.67,151.16 185.02,150.45
             186.36,149.73 187.71,149.20 189.08,148.86
             189.08,148.86 189.23,132.38 189.23,132.38 Z
           M 163.52,96.84
           C 163.57,97.86 163.60,99.05 163.62,100.42
             163.66,101.79 163.68,103.23 163.70,104.75
             163.73,106.26 163.75,107.79 163.75,109.33
             163.75,109.33 163.75,113.50 163.75,113.50
             163.75,115.04 163.55,116.50 163.16,117.88
             162.77,119.24 162.26,120.55 161.62,121.80
             163.13,122.75 164.47,123.35 165.64,123.61
             166.82,123.87 168.21,124.00 169.83,124.00
             171.05,124.00 172.44,123.90 174.00,123.69
             175.56,123.47 177.20,123.20 178.91,122.86
             180.61,122.53 182.37,122.18 184.17,121.83
             185.98,121.46 187.72,121.14 189.38,120.86
             189.38,120.86 189.67,96.84 189.67,96.84
             189.67,96.84 163.52,96.84 163.52,96.84 Z
           M 206.73,204.00
           C 206.73,204.00 159.12,204.00 159.12,204.00
             159.12,204.00 159.12,194.16 159.12,194.16
             159.12,194.16 206.73,194.16 206.73,194.16
             206.73,194.16 206.73,204.00 206.73,204.00 Z
           M 253.70,160.45
           C 253.27,160.11 252.92,159.80 252.67,159.53
             252.43,159.25 252.25,158.92 252.12,158.53
             252.01,158.14 251.94,157.66 251.91,157.09
             251.88,156.52 251.88,155.77 251.88,154.83
             251.88,154.83 252.02,138.92 252.02,138.92
             250.94,139.71 249.85,140.42 248.75,141.05
             247.66,141.67 246.45,142.21 245.12,142.66
             243.81,143.11 242.35,143.45 240.73,143.67
             239.13,143.89 237.30,144.00 235.25,144.00
             233.78,144.00 232.21,143.61 230.55,142.83
             228.89,142.04 227.29,140.97 225.75,139.62
             224.22,138.28 222.78,136.68 221.44,134.81
             220.09,132.95 218.98,130.92 218.11,128.72
             217.91,128.23 217.66,127.51 217.38,126.55
             217.08,125.59 216.81,124.59 216.56,123.56
             216.32,122.53 216.10,121.55 215.91,120.62
             215.72,119.70 215.62,118.96 215.62,118.42
             215.62,116.95 216.00,115.48 216.75,113.98
             217.51,112.48 218.57,111.15 219.94,109.97
             221.30,108.79 222.95,107.84 224.88,107.11
             226.81,106.37 228.93,106.00 231.22,106.00
             232.54,106.00 233.88,106.00 235.25,106.00
             236.61,106.00 237.91,106.05 239.12,106.16
             240.34,106.26 241.43,106.39 242.38,106.55
             243.33,106.70 244.08,106.89 244.62,107.14
             245.70,108.37 246.72,109.59 247.70,110.81
             248.52,111.84 249.36,112.91 250.22,114.03
             251.07,115.16 251.77,116.12 252.31,116.94
             252.31,116.94 252.53,96.84 252.53,96.84
             252.53,96.84 206.53,96.84 206.53,96.84
             206.53,96.84 206.53,87.00 206.53,87.00
             206.53,87.00 273.77,87.00 273.77,87.00
             273.77,87.00 273.77,96.84 273.77,96.84
             273.77,96.84 263.67,96.84 263.67,96.84
             263.67,96.84 263.67,147.72 263.67,147.72
             263.67,153.25 263.77,157.51 263.95,160.50
             264.15,163.49 264.27,165.32 264.33,166.00
             264.33,166.89 264.08,167.33 263.59,167.33
             263.05,167.33 261.95,166.62 260.30,165.19
             260.30,165.19 253.70,160.45 253.70,160.45 Z
           M 237.30,118.00
           C 235.00,118.00 232.98,118.28 231.22,118.83
             229.46,119.37 227.98,120.11 226.78,121.03
             225.59,121.95 224.68,123.01 224.05,124.22
             223.41,125.43 223.09,126.72 223.09,128.09
             223.82,129.69 224.83,130.91 226.12,131.75
             227.41,132.59 229.09,133.00 231.14,133.00
             233.14,133.00 235.13,132.72 237.11,132.16
             239.09,131.59 240.98,130.82 242.78,129.84
             244.59,128.87 246.30,127.70 247.91,126.34
             249.52,124.99 250.96,123.54 252.23,122.00
             252.23,122.00 252.23,119.27 252.23,119.27
             250.29,119.27 248.10,119.06 245.69,118.64
             243.27,118.21 240.47,118.00 237.30,118.00 Z
           M 282.62,160.50
           C 282.19,160.16 281.84,159.85 281.59,159.58
             281.35,159.31 281.17,158.98 281.05,158.59
             280.92,158.20 280.85,157.72 280.83,157.16
             280.80,156.59 280.80,155.85 280.80,154.92
             280.80,154.92 281.45,96.84 281.45,96.84
             281.45,96.84 270.53,96.84 270.53,96.84
             270.53,96.84 270.53,87.00 270.53,87.00
             270.53,87.00 302.55,87.00 302.55,87.00
             302.55,87.00 302.55,96.84 302.55,96.84
             302.55,96.84 292.58,96.84 292.58,96.84
             292.58,96.84 292.58,147.72 292.58,147.72
             292.58,153.25 292.68,157.51 292.88,160.50
             293.07,163.49 293.19,165.32 293.23,166.00
             293.23,166.89 292.99,167.33 292.52,167.33
             291.97,167.33 290.88,166.62 289.22,165.20
             289.22,165.20 282.62,160.50 282.62,160.50 Z
           M 343.84,160.62
           C 343.41,160.29 343.06,160.00 342.81,159.73
             342.57,159.46 342.39,159.15 342.27,158.80
             342.15,158.43 342.08,157.98 342.05,157.42
             342.02,156.86 342.02,156.10 342.02,155.14
             342.02,155.14 342.23,137.77 342.23,137.77
             340.18,139.29 337.91,140.54 335.42,141.53
             332.93,142.51 330.52,143.00 328.17,143.00
             325.97,143.00 323.68,142.34 321.28,141.03
             318.89,139.71 316.71,137.98 314.73,135.84
             312.75,133.71 311.13,131.28 309.86,128.55
             308.59,125.81 307.95,123.02 307.95,120.19
             307.95,115.32 309.33,111.91 312.09,109.95
             314.85,107.98 318.87,107.00 324.14,107.00
             325.07,107.00 326.09,107.00 327.22,107.00
             328.34,107.00 329.44,107.08 330.52,107.23
             331.59,107.38 332.56,107.57 333.44,107.81
             334.32,108.04 335.01,108.28 335.50,108.53
             335.50,108.53 338.28,112.67 338.28,112.67
             338.66,113.23 339.31,114.07 340.22,115.17
             341.12,116.27 341.87,117.30 342.45,118.27
             342.45,118.27 342.67,96.84 342.67,96.84
             342.67,96.84 299.53,96.84 299.53,96.84
             299.53,96.84 299.53,87.00 299.53,87.00
             299.53,87.00 388.16,87.00 388.16,87.00
             388.16,87.00 388.16,96.84 388.16,96.84
             388.16,96.84 353.81,96.84 353.81,96.84
             353.81,96.84 353.81,115.25 353.81,115.25
             354.63,114.74 355.58,114.31 356.66,113.95
             357.74,113.59 358.91,113.41 360.19,113.41
             362.38,113.41 364.61,114.13 366.91,115.58
             369.21,117.03 371.27,118.90 373.11,121.19
             374.94,123.47 376.44,126.03 377.61,128.88
             378.79,131.72 379.38,134.54 379.38,137.34
             379.38,140.29 378.52,143.54 376.81,147.08
             375.10,150.61 372.66,153.90 369.48,156.94
             369.43,156.98 369.38,157.00 369.33,157.00
             369.09,157.00 368.70,156.81 368.16,156.42
             367.62,156.04 367.02,155.54 366.36,154.92
             365.70,154.31 364.99,153.64 364.23,152.91
             363.48,152.17 362.80,151.48 362.19,150.84
             361.58,150.21 361.07,149.67 360.66,149.23
             360.24,148.80 360.00,148.53 359.95,148.42
             359.71,147.79 359.77,147.24 360.14,146.78
             360.50,146.31 361.10,145.84 361.94,145.34
             362.48,145.05 363.30,144.34 364.42,143.22
             365.55,142.09 366.68,140.79 367.83,139.30
             368.98,137.81 369.99,136.23 370.84,134.58
             371.70,132.91 372.12,131.37 372.12,129.94
             372.12,127.99 371.66,126.45 370.72,125.30
             369.79,124.14 368.38,123.56 366.48,123.56
             364.43,123.56 362.32,124.15 360.14,125.33
             357.97,126.51 355.86,128.20 353.81,130.41
             353.81,130.41 353.81,147.92 353.81,147.92
             353.81,153.45 353.91,157.67 354.09,160.61
             354.29,163.54 354.41,165.34 354.47,166.02
             354.47,166.89 354.22,167.33 353.73,167.33
             353.24,167.33 352.14,166.63 350.44,165.23
             350.44,165.23 343.84,160.62 343.84,160.62 Z
           M 341.14,121.27
           C 340.80,121.12 340.25,120.88 339.52,120.53
             338.79,120.19 337.87,119.83 336.77,119.45
             335.67,119.08 334.41,118.75 332.97,118.45
             331.53,118.15 329.96,118.00 328.25,118.00
             326.49,118.00 324.80,118.25 323.19,118.73
             321.58,119.23 320.16,119.89 318.94,120.73
             317.72,121.57 316.75,122.54 316.05,123.64
             315.34,124.75 314.98,125.89 314.98,127.06
             314.98,128.59 315.18,129.81 315.56,130.72
             315.96,131.62 316.47,132.33 317.11,132.83
             317.74,133.32 318.49,133.64 319.34,133.78
             320.20,133.93 321.09,134.00 322.02,134.00
             325.54,134.00 329.00,133.02 332.42,131.06
             335.84,129.11 339.16,126.51 342.38,123.27
             342.38,123.27 342.38,121.72 342.38,121.72
             342.08,121.72 341.86,121.67 341.72,121.58
             341.57,121.48 341.38,121.37 341.14,121.27 Z
           M 371.98,185.50
           C 369.49,182.53 367.34,179.99 365.53,177.88
             363.73,175.76 362.11,174.02 360.67,172.66
             359.23,171.29 357.87,170.28 356.61,169.62
             355.34,168.97 353.95,168.64 352.42,168.64
             351.75,168.64 351.06,168.76 350.38,169.00
             349.69,169.24 349.01,169.51 348.33,169.81
             347.64,170.12 346.95,170.40 346.23,170.64
             345.53,170.88 344.84,171.00 344.16,171.00
             343.56,171.00 342.79,170.66 341.84,169.98
             340.90,169.32 339.98,168.52 339.11,167.59
             338.23,166.66 337.46,165.66 336.83,164.61
             336.20,163.56 335.88,162.65 335.88,161.88
             335.88,160.49 336.48,159.34 337.70,158.41
             338.92,157.47 340.66,157.00 342.91,157.00
             345.11,157.00 347.09,157.20 348.84,157.58
             350.59,157.96 352.28,158.62 353.89,159.55
             355.51,160.46 357.12,161.68 358.73,163.20
             360.34,164.73 362.09,166.60 364.00,168.83
             364.00,168.83 378.14,185.36 378.14,185.36
             378.58,185.99 378.66,186.67 378.39,187.39
             378.12,188.12 377.50,188.48 376.53,188.48
             375.84,188.48 375.28,188.39 374.84,188.22
             374.41,188.05 374.02,187.83 373.70,187.56
             373.39,187.30 373.11,186.99 372.86,186.62
             372.62,186.26 372.33,185.88 371.98,185.50 Z" />
</svg>
