<?xml version="1.0" encoding="UTF-8" standalone="no"?>
<svg
   xmlns:dc="http://purl.org/dc/elements/1.1/"
   xmlns:cc="http://creativecommons.org/ns#"
   xmlns:rdf="http://www.w3.org/1999/02/22-rdf-syntax-ns#"
   xmlns:svg="http://www.w3.org/2000/svg"
   xmlns="http://www.w3.org/2000/svg"
   xmlns:sodipodi="http://sodipodi.sourceforge.net/DTD/sodipodi-0.dtd"
   xmlns:inkscape="http://www.inkscape.org/namespaces/inkscape"
   width="4mm"
   height="4mm"
   viewBox="0 0 4 4"
   version="1.1"
   id="svg8"
   sodipodi:docname="drawing.svg"
   inkscape:version="1.0.2 (e86c870879, 2021-01-15, custom)">
  <defs
     id="defs2" />
  <sodipodi:namedview
     id="base"
     pagecolor="#ffffff"
     bordercolor="#666666"
     borderopacity="1.0"
     inkscape:pageopacity="0.0"
     inkscape:pageshadow="2"
     inkscape:zoom="30.440881"
     inkscape:cx="14.973036"
     inkscape:cy="4.3300474"
     inkscape:document-units="mm"
     inkscape:current-layer="layer1"
     inkscape:document-rotation="0"
     showgrid="false"
     inkscape:window-width="1920"
     inkscape:window-height="1053"
     inkscape:window-x="0"
     inkscape:window-y="27"
     inkscape:window-maximized="0" />
  <metadata
     id="metadata5">
    <rdf:RDF>
      <cc:Work
         rdf:about="">
        <dc:format>image/svg+xml</dc:format>
        <dc:type
           rdf:resource="http://purl.org/dc/dcmitype/StillImage" />
        <dc:title />
      </cc:Work>
    </rdf:RDF>
  </metadata>
  <g
     inkscape:label="Layer 1"
     inkscape:groupmode="layer"
     id="layer1">
    <g
       id="g75"
       transform="matrix(0.66666667,0,0,0.66666667,1,0.5)">
      <rect
         x="0"
         y="0"
         width="3"
         height="3"
         fill="#ababab"
         id="rect58" />
      <rect
         x="0"
         y="1"
         width="1"
         height="2"
         fill="#555555"
         id="rect60" />
      <rect
         x="0"
         y="2"
         width="2"
         height="1"
         fill="#555555"
         id="rect62" />
    </g>
    <g
       aria-label="031323"
       id="text97"
       style="font-style:normal;font-weight:normal;font-size:0.575114px;line-height:1.25;font-family:sans-serif;fill:#000000;fill-opacity:1;stroke:none;stroke-width:0.107834">
      <path
         d="m 1.1403278,3.1289998 c 0.084542,0 0.1403279,-0.067288 0.1403279,-0.1909378 0,-0.1242247 -0.055786,-0.1880623 -0.1403279,-0.1880623 C 1.0557861,2.7499997 1,2.8138373 1,2.938062 1,3.0617115 1.0557861,3.1289998 1.1403278,3.1289998 Z m 0,-0.065563 c -0.036232,0 -0.064988,-0.030481 -0.064988,-0.1253748 0,-0.094894 0.028756,-0.1224993 0.064988,-0.1224993 0.036232,0 0.064988,0.027605 0.064988,0.1224993 0,0.094894 -0.028756,0.1253748 -0.064988,0.1253748 z m 0,-0.082816 c 0.024155,0 0.043134,-0.017253 0.043134,-0.043709 0,-0.026455 -0.018979,-0.043709 -0.043134,-0.043709 -0.024155,0 -0.043133,0.017253 -0.043133,0.043709 0,0.026455 0.018979,0.043709 0.043133,0.043709 z"
         style="font-style:normal;font-variant:normal;font-weight:bold;font-stretch:normal;font-size:0.575114px;font-family:'Source Code Pro';-inkscape-font-specification:'Source Code Pro Bold';fill:#ffffff;stroke-width:0.107834"
         id="path21" />
      <path
         d="m 1.473318,3.1289998 c 0.077065,0 0.1449287,-0.038533 0.1449287,-0.1063961 0,-0.047159 -0.035657,-0.077065 -0.081666,-0.089143 v -0.0023 c 0.043709,-0.016678 0.069589,-0.043134 0.069589,-0.081091 0,-0.063838 -0.055211,-0.1000698 -0.1345767,-0.1000698 -0.047159,0 -0.088567,0.017828 -0.1242246,0.046584 l 0.042559,0.05176 c 0.025305,-0.020129 0.048885,-0.032206 0.07764,-0.032206 0.033357,0 0.054061,0.014953 0.054061,0.040258 0,0.029331 -0.026455,0.048885 -0.098345,0.048885 v 0.059812 c 0.085692,0 0.1104219,0.020129 0.1104219,0.052335 0,0.027606 -0.028756,0.043134 -0.068439,0.043134 -0.033357,0 -0.064988,-0.015528 -0.089143,-0.036807 l -0.039108,0.053486 c 0.02818,0.031056 0.073615,0.05176 0.136302,0.05176 z"
         style="font-style:normal;font-variant:normal;font-weight:bold;font-stretch:normal;font-size:0.575114px;font-family:'Source Code Pro';-inkscape-font-specification:'Source Code Pro Bold';fill:#ffffff;stroke-width:0.107834"
         id="path23" />
      <path
         d="M 1.7033627,3.1220984 H 1.9690654 V 3.0536599 H 1.886249 V 2.756901 h -0.062112 c -0.028181,0.016678 -0.054061,0.02588 -0.1035206,0.033357 v 0.052335 h 0.081091 v 0.2110669 h -0.098345 z"
         style="font-style:normal;font-variant:normal;font-weight:bold;font-stretch:normal;font-size:0.575114px;font-family:'Source Code Pro';-inkscape-font-specification:'Source Code Pro Bold';fill:#ffffff;stroke-width:0.107834"
         id="path25" />
      <path
         d="m 2.1634531,3.1289998 c 0.077065,0 0.1449287,-0.038533 0.1449287,-0.1063961 0,-0.047159 -0.035657,-0.077065 -0.081666,-0.089143 v -0.0023 c 0.043709,-0.016678 0.069589,-0.043134 0.069589,-0.081091 0,-0.063838 -0.055211,-0.1000698 -0.1345767,-0.1000698 -0.047159,0 -0.088568,0.017828 -0.1242246,0.046584 l 0.042558,0.05176 c 0.025305,-0.020129 0.048885,-0.032206 0.07764,-0.032206 0.033357,0 0.054061,0.014953 0.054061,0.040258 0,0.029331 -0.026455,0.048885 -0.098345,0.048885 v 0.059812 c 0.085692,0 0.1104218,0.020129 0.1104218,0.052335 0,0.027606 -0.028756,0.043134 -0.068439,0.043134 -0.033357,0 -0.064988,-0.015528 -0.089143,-0.036807 l -0.039108,0.053486 c 0.02818,0.031056 0.073614,0.05176 0.136302,0.05176 z"
         style="font-style:normal;font-variant:normal;font-weight:bold;font-stretch:normal;font-size:0.575114px;font-family:'Source Code Pro';-inkscape-font-specification:'Source Code Pro Bold';fill:#ffffff;stroke-width:0.107834"
         id="path27" />
      <path
         d="m 2.3814204,3.1220984 h 0.2743294 v -0.071314 h -0.086842 c -0.018979,0 -0.045434,0.0023 -0.066138,0.0046 0.070739,-0.062112 0.1340016,-0.1276753 0.1340016,-0.1892125 0,-0.070164 -0.052335,-0.116173 -0.1288255,-0.116173 -0.056361,0 -0.092593,0.019554 -0.1305509,0.058086 l 0.045434,0.045434 c 0.020704,-0.019554 0.044284,-0.037382 0.073615,-0.037382 0.037958,0 0.059812,0.019554 0.059812,0.055211 0,0.052335 -0.070164,0.1144477 -0.1748346,0.2024402 z"
         style="font-style:normal;font-variant:normal;font-weight:bold;font-stretch:normal;font-size:0.575114px;font-family:'Source Code Pro';-inkscape-font-specification:'Source Code Pro Bold';fill:#ffffff;stroke-width:0.107834"
         id="path29" />
      <path
         d="m 2.8535881,3.1289998 c 0.077065,0 0.1449287,-0.038533 0.1449287,-0.1063961 0,-0.047159 -0.035657,-0.077065 -0.081666,-0.089143 v -0.0023 c 0.043709,-0.016678 0.069589,-0.043134 0.069589,-0.081091 0,-0.063838 -0.055211,-0.1000698 -0.1345767,-0.1000698 -0.047159,0 -0.088567,0.017828 -0.1242246,0.046584 l 0.042558,0.05176 c 0.025305,-0.020129 0.048885,-0.032206 0.07764,-0.032206 0.033357,0 0.054061,0.014953 0.054061,0.040258 0,0.029331 -0.026455,0.048885 -0.098345,0.048885 v 0.059812 c 0.085692,0 0.1104218,0.020129 0.1104218,0.052335 0,0.027606 -0.028756,0.043134 -0.068439,0.043134 -0.033357,0 -0.064988,-0.015528 -0.089143,-0.036807 l -0.039108,0.053486 c 0.02818,0.031056 0.073615,0.05176 0.136302,0.05176 z"
         style="font-style:normal;font-variant:normal;font-weight:bold;font-stretch:normal;font-size:0.575114px;font-family:'Source Code Pro';-inkscape-font-specification:'Source Code Pro Bold';fill:#ffffff;stroke-width:0.107834"
         id="path31" />
    </g>
  </g>
</svg>
