<?xml version="1.0" standalone="no"?>
<!DOCTYPE svg PUBLIC "-//W3C//DTD SVG 1.1//EN" "http://www.w3.org/Graphics/SVG/1.1/DTD/svg11.dtd" >
<svg xmlns="http://www.w3.org/2000/svg" xmlns:xlink="http://www.w3.org/1999/xlink" version="1.1" viewBox="-10 0 1239 2048">
   <path fill="currentColor"
d="M1111 963q0 339 -128 517t-372 178q-245 0 -369.5 -177.5t-124.5 -517.5q0 -352 121.5 -523.5t380.5 -171.5q250 0 371 174t121 521zM829 963q0 -176 -21 -278.5t-65 -149.5t-126 -47q-86 0 -132 47t-66.5 149.5t-20.5 278.5q0 174 21.5 277t66.5 150t127 47
q116 0 166 -109t50 -365zM506 1083v-249h215v249h-215z" />
</svg>
