<?xml version="1.0" standalone="no"?>
<!DOCTYPE svg PUBLIC "-//W3C//DTD SVG 1.1//EN" "http://www.w3.org/Graphics/SVG/1.1/DTD/svg11.dtd" >
<svg xmlns="http://www.w3.org/2000/svg" xmlns:xlink="http://www.w3.org/1999/xlink" version="1.1" viewBox="-10 0 1239 2048">
   <path fill="currentColor"
d="M1125 1262q0 189 -135.5 294t-374.5 105q-230 0 -364.5 -100.5t-157.5 -290.5l286 -25q25 188 235 188q105 0 164 -50.5t59 -137.5t-72.5 -133t-207.5 -46h-98v-227h92q122 0 187.5 -46.5t65.5 -129.5q0 -75 -54.5 -123t-145.5 -48q-86 0 -142 40.5t-64 128.5l-281 -20
q22 -179 151.5 -276t340.5 -97q148 0 256.5 45t166 126.5t57.5 188.5q0 123 -78 205t-223 110v4q157 18 247 102.5t90 212.5z" />
</svg>
