<?xml version="1.0" standalone="no"?>
<!DOCTYPE svg PUBLIC "-//W3C//DTD SVG 1.1//EN" "http://www.w3.org/Graphics/SVG/1.1/DTD/svg11.dtd" >
<svg xmlns="http://www.w3.org/2000/svg" xmlns:xlink="http://www.w3.org/1999/xlink" version="1.1" viewBox="-10 0 1239 2048">
   <path fill="currentColor"
d="M1115 1192q0 217 -127 341.5t-347 124.5q-245 0 -380.5 -183.5t-135.5 -508.5q0 -354 135.5 -526t387.5 -172q179 0 282.5 79t146.5 245l-265 37q-38 -139 -170 -139q-114 0 -178 108.5t-64 317.5q45 -75 125 -115t181 -40q185 0 297 116.5t112 314.5zM833 1200
q0 -109 -55.5 -170.5t-152.5 -61.5q-90 0 -147.5 55.5t-57.5 146.5q0 113 59 191t153 78q93 0 147 -64t54 -175z" />
</svg>
