<?xml version="1.0" standalone="no"?>
<!DOCTYPE svg PUBLIC "-//W3C//DTD SVG 1.1//EN" "http://www.w3.org/Graphics/SVG/1.1/DTD/svg11.dtd" >
<svg xmlns="http://www.w3.org/2000/svg" xmlns:xlink="http://www.w3.org/1999/xlink" version="1.1" viewBox="-10 0 1239 2048">
   <path fill="currentColor"
d="M1106 941q0 347 -135.5 532t-390.5 185q-186 0 -291.5 -79.5t-149.5 -251.5l264 -37q39 147 180 147q114 0 179.5 -104.5t67.5 -313.5q-38 75 -124.5 117.5t-186.5 42.5q-183 0 -294 -123t-111 -331q0 -213 130 -335t362 -122q244 0 372 166t128 507zM809 759
q0 -122 -59 -196.5t-151 -74.5q-91 0 -145.5 64.5t-54.5 174.5q0 108 54.5 175.5t146.5 67.5q91 0 150 -58.5t59 -152.5z" />
</svg>
